<?xml version="1.0" encoding="utf-8"?>
<!-- Generator: Adobe Illustrator 19.2.0, SVG Export Plug-In . SVG Version: 6.00 Build 0)  -->
<svg version="1.1" id="Layer_1" xmlns="http://www.w3.org/2000/svg" xmlns:xlink="http://www.w3.org/1999/xlink" x="0px" y="0px"
	 viewBox="0 0 960 960" style="enable-background:new 0 0 960 960;" xml:space="preserve">
<style type="text/css">
	.st0{fill:#C1272D;}
	.st1{fill:#AD1F2A;}
	.st2{fill:#FBB03B;}
	.st3{fill:#8C6239;}
	.st4{fill:#7F532F;}
	.st5{fill:#603813;}
	.st6{fill:#0071BC;}
	.st7{fill:#04679E;}
	.st8{fill:#2E3192;}
	.st9{fill:#2DAFD3;}
	.st10{fill:#229EBA;}
	.st11{fill:#0F6193;}
</style>
<g>
	<rect x="310.1" y="226.1" class="st0" width="133.6" height="484.8"/>
	<rect x="413.2" y="226.1" class="st1" width="30.5" height="484.8"/>
	<rect x="310.1" y="268.1" class="st2" width="133.6" height="76.3"/>
	<rect x="172.6" y="191.8" class="st3" width="137.5" height="519.2"/>
	<rect x="279.5" y="191.8" class="st4" width="30.5" height="519.2"/>
	<rect x="172.6" y="226.1" class="st5" width="137.5" height="61.1"/>
	<rect x="172.6" y="611.7" class="st5" width="137.5" height="64.9"/>
	<rect x="172.6" y="611.7" class="st5" width="137.5" height="64.9"/>
	<rect x="172.6" y="573.5" class="st5" width="137.5" height="19.1"/>
	<rect x="310.1" y="367.4" class="st2" width="133.6" height="11.5"/>
	<rect x="310.1" y="638.4" class="st2" width="133.6" height="11.5"/>
	<rect x="310.1" y="665.1" class="st2" width="133.6" height="19.1"/>
	<rect x="443.7" y="207.1" class="st6" width="122.2" height="503.9"/>
	<rect x="535.4" y="207.1" class="st7" width="30.5" height="503.9"/>
	<path class="st8" d="M539.2,590.7c0,20-16.2,36.3-36.3,36.3l0,0c-20,0-36.3-16.2-36.3-36.3V292.9c0-20,16.2-36.3,36.3-36.3l0,0
		c20,0,36.3,16.2,36.3,36.3V590.7z"/>
	<path class="st2" d="M416,596.4h-70.6c-2.7,0-4.8-2.2-4.8-4.8V463.8c0-2.7,2.2-4.8,4.8-4.8H416c2.7,0,4.8,2.2,4.8,4.8v127.8
		C420.8,594.3,418.7,596.4,416,596.4z"/>
	
		<rect x="609.1" y="217.6" transform="matrix(0.982 -0.1888 0.1888 0.982 -74.6591 135.9342)" class="st9" width="134.2" height="484.5"/>
	
		<rect x="709.7" y="208.1" transform="matrix(0.982 -0.1888 0.1888 0.982 -71.9718 145.1693)" class="st10" width="32.6" height="484.5"/>
	
		<rect x="573.2" y="266.4" transform="matrix(0.982 -0.1888 0.1888 0.982 -39.8746 125.7269)" class="st11" width="133.6" height="11.5"/>
	
		<rect x="578.3" y="293.1" transform="matrix(0.982 -0.1888 0.1888 0.982 -44.8247 127.1713)" class="st11" width="133.6" height="11.5"/>
	
		<rect x="641.7" y="622.3" transform="matrix(0.982 -0.1888 0.1888 0.982 -105.8363 145.0585)" class="st11" width="133.6" height="11.5"/>
	
		<rect x="646.8" y="649" transform="matrix(0.982 -0.1888 0.1888 0.982 -110.7864 146.5029)" class="st11" width="133.6" height="11.5"/>
	<ellipse class="st5" cx="241.7" cy="367.3" rx="39" ry="39"/>
	<path class="st8" d="M531.5,669h-57.3c-3.2,0-5.7-2.6-5.7-5.7s2.6-5.7,5.7-5.7h57.3c3.2,0,5.7,2.6,5.7,5.7S534.7,669,531.5,669z"/>
	<path class="st11" d="M728.4,582.6l-51.1,9.8c-3.5,0.7-6.8-1.6-7.5-5.1L626.7,363c-0.7-3.5,1.6-6.8,5.1-7.5l51.1-9.8
		c3.5-0.7,6.8,1.6,7.5,5.1l43.2,224.4C734.1,578.6,731.8,582,728.4,582.6z"/>
	<rect x="134.4" y="711" class="st5" width="691.1" height="57.3"/>
</g>
</svg>
